<?xml version="1.0" encoding="UTF-8"?>
<svg width="320" height="200" viewBox="0 0 600 360" fill="none" xmlns="http://www.w3.org/2000/svg">

  <!-- Background Blob -->
  <path d="M120 180C120 110 200 70 300 80C420 90 480 120 480 180C480 240 420 280 300 270C200 260 120 230 120 180Z" 
        fill="#F3F4F6"/>

  <!-- Pricing Card 1 -->
  <rect x="190" y="140" width="80" height="120" rx="12" fill="#3B82F6"/>
  <text x="230" y="170" text-anchor="middle" fill="white" font-size="18" font-family="Arial" font-weight="bold">Basic</text>
  <text x="230" y="200" text-anchor="middle" fill="white" font-size="24" font-family="Arial" font-weight="bold">$9</text>
  <rect x="210" y="220" width="40" height="6" rx="3" fill="white"/>
  <rect x="210" y="235" width="35" height="6" rx="3" fill="white"/>

  <!-- Pricing Card 2 (Highlighted) -->
  <rect x="260" y="120" width="100" height="150" rx="14" fill="#22C55E"/>
  <text x="310" y="155" text-anchor="middle" fill="white" font-size="18" font-family="Arial" font-weight="bold">Pro</text>
  <text x="310" y="190" text-anchor="middle" fill="white" font-size="28" font-family="Arial" font-weight="bold">$29</text>
  <rect x="285" y="215" width="50" height="6" rx="3" fill="white"/>
  <rect x="285" y="230" width="45" height="6" rx="3" fill="white"/>
  <rect x="285" y="245" width="40" height="6" rx="3" fill="white"/>

  <!-- Pricing Card 3 -->
  <rect x="370" y="140" width="80" height="120" rx="12" fill="#8B5CF6"/>
  <text x="410" y="170" text-anchor="middle" fill="white" font-size="18" font-family="Arial" font-weight="bold">Enterprise</text>
  <text x="410" y="200" text-anchor="middle" fill="white" font-size="22" font-family="Arial" font-weight="bold">$99</text>
  <rect x="390" y="220" width="40" height="6" rx="3" fill="white"/>
  <rect x="390" y="235" width="35" height="6" rx="3" fill="white"/>

</svg>
