<?xml version="1.0" encoding="UTF-8"?>
<svg width="800" height="400" viewBox="0 0 800 400" xmlns="http://www.w3.org/2000/svg">

  <defs>
    <linearGradient id="rocketGrad" x1="0" y1="0" x2="0" y2="1">
      <stop offset="0%" stop-color="#6366f1"/>
      <stop offset="100%" stop-color="#8b5cf6"/>
    </linearGradient>

    <filter id="shadow" x="-20%" y="-20%" width="140%" height="140%">
      <feDropShadow dx="0" dy="6" stdDeviation="10" flood-color="#000" flood-opacity="0.15"/>
    </filter>
  </defs>

  <!-- Oval arka plan -->
  <ellipse cx="400" cy="200" rx="300" ry="130" fill="#e5e7eb"/>

  <!-- Ana kart -->
  <rect x="275" y="110" width="250" height="180" rx="24" fill="#ffffff" filter="url(#shadow)"/>

  <!-- Roket -->
  <g transform="translate(335,135)">
    <!-- Gövde -->
    <ellipse cx="65" cy="70" rx="35" ry="65" fill="url(#rocketGrad)"/>

    <!-- Pencere -->
    <circle cx="65" cy="55" r="12" fill="#ffffff"/>

    <!-- Kanatlar -->
    <polygon points="30,85 10,120 45,100" fill="#a78bfa"/>
    <polygon points="100,85 120,120 85,100" fill="#a78bfa"/>

    <!-- Ateş -->
    <polygon points="65,135 50,170 80,170" fill="#f59e0b"/>
    <polygon points="65,145 55,185 75,185" fill="#f97316"/>
  </g>

  <!-- Yıldızlar -->
  <g fill="#facc15">
    <polygon points="300,150 305,165 320,165 308,175 312,190 300,180 288,190 292,175 280,165 295,165"/>
    <polygon points="500,160 505,172 518,172 508,180 512,192 500,184 488,192 492,180 482,172 495,172"/>
  </g>

</svg>
