<?xml version="1.0" encoding="UTF-8"?>
<svg width="600" height="300" viewBox="0 0 600 300" fill="none" xmlns="http://www.w3.org/2000/svg">

  <!-- Background Blob -->
  <path d="M80 150C80 90 140 50 300 60C460 70 520 100 520 150C520 200 460 240 300 230C140 220 80 200 80 150Z" 
        fill="#F3F4F6"/>

  <!-- Desk -->
  <rect x="170" y="180" width="260" height="12" rx="6" fill="#D1D5DB"/>

  <!-- Laptop Body -->
  <rect x="200" y="110" width="200" height="80" rx="8" fill="#1F2937"/>
  <rect x="210" y="120" width="180" height="60" rx="4" fill="#111827"/>

  <!-- Product Card Left -->
  <rect x="225" y="130" width="50" height="40" rx="6" fill="#22C55E"/>
  <rect x="235" y="140" width="30" height="6" rx="3" fill="white"/>
  <rect x="235" y="150" width="20" height="6" rx="3" fill="white"/>
  <rect x="235" y="160" width="25" height="6" rx="3" fill="white"/>

  <!-- Product Card Center -->
  <rect x="285" y="130" width="50" height="40" rx="6" fill="#3B82F6"/>
  <circle cx="310" cy="150" r="10" fill="white"/>
  <rect x="300" y="163" width="20" height="5" rx="2" fill="white"/>

  <!-- Product Card Right -->
  <rect x="345" y="130" width="50" height="40" rx="6" fill="#8B5CF6"/>
  <rect x="355" y="140" width="30" height="6" rx="3" fill="white"/>
  <rect x="355" y="150" width="25" height="6" rx="3" fill="white"/>
  <rect x="355" y="160" width="20" height="6" rx="3" fill="white"/>

  <!-- Floating Boxes -->
  <rect x="180" y="80" width="40" height="30" rx="6" fill="#F59E0B"/>
  <rect x="430" y="90" width="40" height="30" rx="6" fill="#EF4444"/>

</svg>
